<?xml version="1.0" standalone="no"?>
<!DOCTYPE svg PUBLIC "-//W3C//DTD SVG 20010904//EN"
 "http://www.w3.org/TR/2001/REC-SVG-20010904/DTD/svg10.dtd">
<svg version="1.0" xmlns="http://www.w3.org/2000/svg"
 width="100.000000pt" height="100.000000pt" viewBox="0 0 100.000000 100.000000"
 preserveAspectRatio="xMidYMid meet">
<metadata>
Created by potrace 1.11, written by Peter Selinger 2001-2013
</metadata>
<g transform="translate(0.000000,100.000000) scale(0.100000,-0.100000)"
fill="#000000" stroke="none">
<path d="M61 949 c-14 -14 -19 -29 -16 -59 2 -22 -1 -43 -6 -46 -5 -3 -6 -11
-2 -17 10 -16 11 -217 1 -223 -5 -3 -4 -13 0 -22 7 -15 9 -202 2 -227 -1 -5
-1 -12 0 -15 7 -14 4 -240 -3 -240 -4 0 5 -12 20 -28 l28 -27 410 0 410 -1 33
32 c31 31 45 63 20 48 -10 -6 -10 -4 0 8 9 12 10 18 2 23 -8 5 -8 10 0 20 8
10 8 15 0 20 -8 5 -8 11 -1 19 7 9 7 17 -2 26 -7 8 -7 10 -1 7 7 -4 12 3 12
18 0 16 -5 22 -12 18 -6 -4 -5 0 2 9 9 11 10 18 2 23 -6 3 -7 12 -3 18 12 19
11 81 -1 96 -8 11 -8 13 1 8 15 -9 14 32 -1 52 -8 11 -8 13 1 8 15 -9 14 32
-1 52 -8 11 -8 13 1 8 15 -9 14 32 -1 52 -8 11 -8 13 1 8 15 -9 14 32 -1 52
-8 11 -8 13 0 8 7 -4 11 7 11 33 0 22 -5 40 -11 40 -8 0 -8 2 0 8 6 4 11 16
11 27 0 11 -5 23 -11 27 -8 6 -8 8 0 8 6 0 12 11 12 25 0 14 -6 25 -12 25 -7
0 -6 3 2 9 17 10 12 29 -16 61 l-22 27 -420 0 c-390 0 -421 -2 -439 -18z"/>
</g>
</svg>
